<svg width="32" height="40" viewBox="0 0 32 40" fill="none" xmlns="http://www.w3.org/2000/svg">
<path d="M31.75 12.125L19.9375 0.3125H6.8125C5.07202 0.3125 3.40282 1.0039 2.17211 2.23461C0.941404 3.46532 0.25 5.13452 0.25 6.875V33.125C0.25 34.8655 0.941404 36.5347 2.17211 37.7654C3.40282 38.9961 5.07202 39.6875 6.8125 39.6875H25.1875C26.928 39.6875 28.5972 38.9961 29.8279 37.7654C31.0586 36.5347 31.75 34.8655 31.75 33.125V12.125Z" fill="#E6ECFF"/>
<path d="M25.1875 18.6875H6.8125C6.4644 18.6875 6.13056 18.5492 5.88442 18.3031C5.63828 18.0569 5.5 17.7231 5.5 17.375C5.5 17.0269 5.63828 16.6931 5.88442 16.4469C6.13056 16.2008 6.4644 16.0625 6.8125 16.0625H25.1875C25.5356 16.0625 25.8694 16.2008 26.1156 16.4469C26.3617 16.6931 26.5 17.0269 26.5 17.375C26.5 17.7231 26.3617 18.0569 26.1156 18.3031C25.8694 18.5492 25.5356 18.6875 25.1875 18.6875Z" fill="#4294FF"/>
<path d="M14.6875 13.4375H6.8125C6.4644 13.4375 6.13056 13.2992 5.88442 13.0531C5.63828 12.8069 5.5 12.4731 5.5 12.125C5.5 11.7769 5.63828 11.4431 5.88442 11.1969C6.13056 10.9508 6.4644 10.8125 6.8125 10.8125H14.6875C15.0356 10.8125 15.3694 10.9508 15.6156 11.1969C15.8617 11.4431 16 11.7769 16 12.125C16 12.4731 15.8617 12.8069 15.6156 13.0531C15.3694 13.2992 15.0356 13.4375 14.6875 13.4375Z" fill="#4294FF"/>
<path d="M14.6875 8.1875H6.8125C6.4644 8.1875 6.13056 8.04922 5.88442 7.80308C5.63828 7.55694 5.5 7.2231 5.5 6.875C5.5 6.5269 5.63828 6.19306 5.88442 5.94692C6.13056 5.70078 6.4644 5.5625 6.8125 5.5625H14.6875C15.0356 5.5625 15.3694 5.70078 15.6156 5.94692C15.8617 6.19306 16 6.5269 16 6.875C16 7.2231 15.8617 7.55694 15.6156 7.80308C15.3694 8.04922 15.0356 8.1875 14.6875 8.1875Z" fill="#4294FF"/>
<path d="M25.1875 34.4375H6.8125C6.4644 34.4375 6.13056 34.2992 5.88442 34.0531C5.63828 33.8069 5.5 33.4731 5.5 33.125C5.5 32.7769 5.63828 32.4431 5.88442 32.1969C6.13056 31.9508 6.4644 31.8125 6.8125 31.8125H25.1875C25.5356 31.8125 25.8694 31.9508 26.1156 32.1969C26.3617 32.4431 26.5 32.7769 26.5 33.125C26.5 33.4731 26.3617 33.8069 26.1156 34.0531C25.8694 34.2992 25.5356 34.4375 25.1875 34.4375Z" fill="#4294FF"/>
<path d="M25.1875 29.1875H6.8125C6.4644 29.1875 6.13056 29.0492 5.88442 28.8031C5.63828 28.5569 5.5 28.2231 5.5 27.875C5.5 27.5269 5.63828 27.1931 5.88442 26.9469C6.13056 26.7008 6.4644 26.5625 6.8125 26.5625H25.1875C25.5356 26.5625 25.8694 26.7008 26.1156 26.9469C26.3617 27.1931 26.5 27.5269 26.5 27.875C26.5 28.2231 26.3617 28.5569 26.1156 28.8031C25.8694 29.0492 25.5356 29.1875 25.1875 29.1875Z" fill="#4294FF"/>
<path d="M25.1875 23.9375H6.8125C6.4644 23.9375 6.13056 23.7992 5.88442 23.5531C5.63828 23.3069 5.5 22.9731 5.5 22.625C5.5 22.2769 5.63828 21.9431 5.88442 21.6969C6.13056 21.4508 6.4644 21.3125 6.8125 21.3125H25.1875C25.5356 21.3125 25.8694 21.4508 26.1156 21.6969C26.3617 21.9431 26.5 22.2769 26.5 22.625C26.5 22.9731 26.3617 23.3069 26.1156 23.5531C25.8694 23.7992 25.5356 23.9375 25.1875 23.9375Z" fill="#4294FF"/>
<path d="M19.9375 0.3125V9.5C19.9375 10.1962 20.2141 10.8639 20.7063 11.3562C21.1986 11.8484 21.8663 12.125 22.5625 12.125H31.75L19.9375 0.3125Z" fill="#E6ECFF"/>
</svg>
