<svg width="40" height="40" viewBox="0 0 40 40" fill="none" xmlns="http://www.w3.org/2000/svg">
<path d="M24.5871 34.9888C24.6018 35.0827 24.5961 35.1787 24.5703 35.2702C24.5444 35.3617 24.4991 35.4465 24.4374 35.5189C24.3756 35.5912 24.299 35.6493 24.2127 35.6892C24.1264 35.7291 24.0325 35.7498 23.9374 35.75H18.1296C17.493 35.3431 16.8827 34.9034 16.2921 34.4375C16.0558 34.2538 15.8261 34.0634 15.5964 33.8731L16.0689 31.0513C16.0938 30.8971 16.173 30.7568 16.2921 30.6557C16.4112 30.5547 16.5624 30.4995 16.7186 30.5H23.2811C23.4373 30.4995 23.5886 30.5547 23.7077 30.6557C23.8268 30.7568 23.9059 30.8971 23.9308 31.0513L24.4952 34.4375L24.5871 34.9888Z" fill="#4294FF"/>
<path d="M10.8125 18.6875H6.875C6.51256 18.6875 6.21875 18.9813 6.21875 19.3438V31.1562C6.21875 31.5187 6.51256 31.8125 6.875 31.8125H10.8125C11.1749 31.8125 11.4688 31.5187 11.4688 31.1562V19.3438C11.4688 18.9813 11.1749 18.6875 10.8125 18.6875Z" fill="#4294FF"/>
<path d="M21.9688 18.6875H18.0312C17.6688 18.6875 17.375 18.9813 17.375 19.3438V31.1562C17.375 31.5187 17.6688 31.8125 18.0312 31.8125H21.9688C22.3312 31.8125 22.625 31.5187 22.625 31.1562V19.3438C22.625 18.9813 22.3312 18.6875 21.9688 18.6875Z" fill="#4294FF"/>
<path d="M33.125 18.6875H29.1875C28.8251 18.6875 28.5312 18.9813 28.5312 19.3438V31.1562C28.5312 31.5187 28.8251 31.8125 29.1875 31.8125H33.125C33.4874 31.8125 33.7812 31.5187 33.7812 31.1562V19.3438C33.7812 18.9813 33.4874 18.6875 33.125 18.6875Z" fill="#4294FF"/>
<path d="M23.9375 14.75H16.0625C15.9671 14.75 15.873 14.7708 15.7865 14.8109C15.7 14.851 15.6233 14.9094 15.5617 14.9821C15.5001 15.0549 15.4551 15.1402 15.4298 15.232C15.4045 15.3239 15.3995 15.4203 15.4152 15.5143L16.0715 19.4518C16.097 19.605 16.1761 19.7441 16.2946 19.8445C16.4131 19.9449 16.5634 20 16.7187 20H23.2812C23.4365 20.0001 23.5869 19.945 23.7054 19.8446C23.8239 19.7442 23.903 19.605 23.9285 19.4518L24.5847 15.5143C24.6004 15.4203 24.5954 15.3239 24.5701 15.232C24.5448 15.1402 24.4998 15.0549 24.4382 14.9821C24.3766 14.9094 24.2999 14.851 24.2134 14.8109C24.1269 14.7708 24.0328 14.75 23.9375 14.75Z" fill="#4294FF"/>
<path d="M12.7812 14.75H4.90621C4.81089 14.75 4.71672 14.7708 4.63025 14.8109C4.54377 14.851 4.46706 14.9094 4.40546 14.9821C4.34386 15.0549 4.29884 15.1402 4.27354 15.232C4.24824 15.3239 4.24326 15.4203 4.25895 15.5143L4.9152 19.4518C4.94077 19.605 5.01984 19.7441 5.13835 19.8445C5.25687 19.9449 5.40715 20 5.56246 20H12.125C12.2803 20 12.4306 19.9449 12.5491 19.8445C12.6676 19.7441 12.7467 19.605 12.7722 19.4518L13.4285 15.5143C13.4442 15.4203 13.4392 15.3239 13.4139 15.232C13.3886 15.1402 13.3436 15.0549 13.282 14.9821C13.2204 14.9094 13.1437 14.851 13.0572 14.8109C12.9707 14.7708 12.8765 14.75 12.7812 14.75Z" fill="#4294FF"/>
<path d="M27.875 20H34.4375C34.5928 20.0001 34.7431 19.945 34.8617 19.8446C34.9802 19.7442 35.0592 19.605 35.0847 19.4518L35.741 15.5143C35.7567 15.4203 35.7517 15.3239 35.7264 15.232C35.7011 15.1402 35.6561 15.0549 35.5945 14.9821C35.5329 14.9094 35.4562 14.851 35.3697 14.8109C35.2832 14.7708 35.189 14.75 35.0937 14.75H27.2187C27.1234 14.75 27.0292 14.7708 26.9427 14.8109C26.8563 14.851 26.7796 14.9094 26.718 14.9821C26.6564 15.0549 26.6113 15.1402 26.586 15.232C26.5607 15.3239 26.5558 15.4203 26.5715 15.5143L27.2277 19.4518C27.2532 19.605 27.3322 19.7442 27.4508 19.8446C27.5693 19.945 27.7196 20.0001 27.875 20V20Z" fill="#4294FF"/>
<path d="M23.2812 30.5H16.7187C16.5634 30.5 16.4131 30.5551 16.2946 30.6555C16.1761 30.7559 16.097 30.895 16.0715 31.0482L15.4152 34.9857C15.3995 35.0797 15.4045 35.1761 15.4298 35.268C15.4551 35.3598 15.5001 35.4451 15.5617 35.5179C15.6233 35.5906 15.7 35.649 15.7865 35.6891C15.873 35.7292 15.9671 35.75 16.0625 35.75H23.9375C24.0328 35.75 24.1269 35.7292 24.2134 35.6891C24.2999 35.649 24.3766 35.5906 24.4382 35.5179C24.4998 35.4451 24.5448 35.3598 24.5701 35.268C24.5954 35.1761 24.6004 35.0797 24.5847 34.9857L23.9285 31.0482C23.903 30.895 23.8239 30.7558 23.7054 30.6554C23.5869 30.555 23.4365 30.4999 23.2812 30.5Z" fill="#4294FF"/>
<path d="M34.4375 30.5H27.875C27.7196 30.4999 27.5693 30.555 27.4508 30.6554C27.3322 30.7558 27.2532 30.895 27.2277 31.0482L26.5715 34.9857C26.5558 35.0797 26.5607 35.1761 26.586 35.268C26.6113 35.3598 26.6564 35.4451 26.718 35.5179C26.7796 35.5906 26.8563 35.649 26.9427 35.6891C27.0292 35.7292 27.1234 35.75 27.2187 35.75H35.0937C35.189 35.75 35.2832 35.7292 35.3697 35.6891C35.4562 35.649 35.5329 35.5906 35.5945 35.5179C35.6561 35.4451 35.7011 35.3598 35.7264 35.268C35.7517 35.1761 35.7567 35.0797 35.741 34.9857L35.0847 31.0482C35.0592 30.895 34.9802 30.7558 34.8617 30.6554C34.7431 30.555 34.5928 30.4999 34.4375 30.5Z" fill="#4294FF"/>
<path d="M12.125 30.5H5.56246C5.40715 30.5 5.25687 30.5551 5.13835 30.6555C5.01984 30.7559 4.94077 30.895 4.9152 31.0482L4.25895 34.9857C4.24326 35.0797 4.24824 35.1761 4.27354 35.268C4.29884 35.3598 4.34386 35.4451 4.40546 35.5179C4.46706 35.5906 4.54377 35.649 4.63025 35.6891C4.71672 35.7292 4.81089 35.75 4.90621 35.75H12.7812C12.8765 35.75 12.9707 35.7292 13.0572 35.6891C13.1437 35.649 13.2204 35.5906 13.282 35.5179C13.3436 35.4451 13.3886 35.3598 13.4139 35.268C13.4392 35.1761 13.4442 35.0797 13.4285 34.9857L12.7722 31.0482C12.7467 30.895 12.6676 30.7559 12.5491 30.6555C12.4306 30.5551 12.2803 30.5 12.125 30.5Z" fill="#4294FF"/>
<path d="M7.1375 18.6875C7.00987 17.8174 6.92881 16.9412 6.89469 16.0625C6.88156 15.7344 6.875 15.4062 6.875 15.0781C6.875 14.9666 6.875 14.8616 6.88156 14.75H4.25V16.0625H4.34844L4.91281 19.4487C4.93771 19.603 5.01683 19.7432 5.13594 19.8443C5.25504 19.9453 5.4063 20.0005 5.5625 20H7.36719C7.28188 19.5669 7.20312 19.1272 7.1375 18.6875V18.6875Z" fill="#4294FF"/>
<path d="M37.0625 34.4375H2.9375C2.57506 34.4375 2.28125 34.7313 2.28125 35.0938V39.0312C2.28125 39.3937 2.57506 39.6875 2.9375 39.6875H37.0625C37.4249 39.6875 37.7188 39.3937 37.7188 39.0312V35.0938C37.7188 34.7313 37.4249 34.4375 37.0625 34.4375Z" fill="#E6ECFF"/>
<path d="M11.4688 29.3975V30.5H6.21875V20H7.36719C8.0552 23.3871 9.45309 26.5899 11.4688 29.3975V29.3975Z" fill="#578BFF"/>
<path d="M16.2921 34.4377H15.5046L15.5965 33.8733C15.8262 34.0636 16.0559 34.2539 16.2921 34.4377Z" fill="#4294FF"/>
<path d="M31.4844 39.6875H2.9375C2.76361 39.687 2.59698 39.6177 2.47402 39.4947C2.35105 39.3718 2.28175 39.2051 2.28125 39.0312V35.0937C2.28175 34.9199 2.35105 34.7532 2.47402 34.6303C2.59698 34.5073 2.76361 34.438 2.9375 34.4375H16.2922C16.8828 34.9034 17.4931 35.3431 18.1297 35.75C22.1055 38.3292 26.7453 39.6972 31.4844 39.6875V39.6875Z" fill="#E6ECFF"/>
<path d="M37.0625 11.4688H2.9375C2.57506 11.4688 2.28125 11.7626 2.28125 12.125V15.4062C2.28125 15.7687 2.57506 16.0625 2.9375 16.0625H37.0625C37.4249 16.0625 37.7188 15.7687 37.7188 15.4062V12.125C37.7188 11.7626 37.4249 11.4688 37.0625 11.4688Z" fill="#E6ECFF"/>
<path d="M6.88156 14.75C6.875 14.8616 6.875 14.9666 6.875 15.0781C6.875 15.4062 6.88156 15.7344 6.89469 16.0625H2.9375C2.76361 16.062 2.59698 15.9927 2.47402 15.8697C2.35105 15.7468 2.28175 15.5801 2.28125 15.4062V11.4688H7.1375C7.07187 11.9019 7.01937 12.3416 6.98 12.7812C6.92094 13.4309 6.88813 14.0872 6.88156 14.75V14.75Z" fill="#BECCED"/>
<path d="M39.3632 11.5589L20.332 0.402616C20.2312 0.343761 20.1167 0.312744 20 0.312744C19.8833 0.312744 19.7687 0.343761 19.668 0.402616L0.636742 11.5589C0.512393 11.6317 0.415487 11.7435 0.360987 11.8769C0.306487 12.0103 0.297423 12.158 0.335196 12.2971C0.372968 12.4362 0.455477 12.5589 0.569981 12.6465C0.684485 12.734 0.824616 12.7814 0.968739 12.7813H39.0312C39.1754 12.7814 39.3155 12.734 39.43 12.6465C39.5445 12.5589 39.627 12.4362 39.6648 12.2971C39.7026 12.158 39.6935 12.0103 39.639 11.8769C39.5845 11.7435 39.4876 11.6317 39.3632 11.5589V11.5589Z" fill="#E6ECFF"/>
<path d="M21.3125 6.21875C21.4865 6.21875 21.6535 6.14961 21.7765 6.02654C21.8996 5.90347 21.9688 5.73655 21.9688 5.5625V5.46669C21.9674 5.06933 21.8394 4.68275 21.6034 4.36307C21.3673 4.04339 21.0356 3.80724 20.6562 3.68891V3.59375C20.6562 3.4197 20.5871 3.25278 20.464 3.12971C20.341 3.00664 20.174 2.9375 20 2.9375C19.826 2.9375 19.659 3.00664 19.536 3.12971C19.4129 3.25278 19.3438 3.4197 19.3438 3.59375V3.68891C18.9878 3.79951 18.6732 4.01415 18.4403 4.30518C18.2075 4.59621 18.0671 4.9503 18.0373 5.32182C18.0074 5.69334 18.0895 6.06528 18.273 6.38973C18.4564 6.71417 18.7328 6.97626 19.0666 7.14222L20.3462 7.78148C20.4592 7.83797 20.5497 7.93093 20.6032 8.0453C20.6568 8.15967 20.6701 8.28875 20.6411 8.41166C20.6122 8.53456 20.5426 8.64408 20.4436 8.7225C20.3446 8.80092 20.2221 8.84364 20.0958 8.84375H19.9042C19.7556 8.84354 19.6132 8.78443 19.5081 8.67937C19.4031 8.57431 19.344 8.43189 19.3438 8.28331V8.1875C19.3438 8.01345 19.2746 7.84653 19.1515 7.72346C19.0285 7.60039 18.8615 7.53125 18.6875 7.53125C18.5135 7.53125 18.3465 7.60039 18.2235 7.72346C18.1004 7.84653 18.0312 8.01345 18.0312 8.1875V8.28331C18.0326 8.68067 18.1606 9.06725 18.3966 9.38693C18.6327 9.70661 18.9644 9.94276 19.3438 10.0611V10.1562C19.3438 10.3303 19.4129 10.4972 19.536 10.6203C19.659 10.7434 19.826 10.8125 20 10.8125C20.174 10.8125 20.341 10.7434 20.464 10.6203C20.5871 10.4972 20.6562 10.3303 20.6562 10.1562V10.0611C21.0122 9.9505 21.3269 9.73585 21.5598 9.4448C21.7926 9.15375 21.933 8.79964 21.9628 8.42809C21.9926 8.05654 21.9104 7.68458 21.7269 7.36015C21.5434 7.03571 21.2669 6.77367 20.9331 6.60778L19.654 5.96852C19.5409 5.91212 19.4503 5.81919 19.3967 5.70481C19.343 5.59043 19.3296 5.4613 19.3586 5.33834C19.3876 5.21538 19.4572 5.10581 19.5562 5.02739C19.6553 4.94896 19.7779 4.90628 19.9042 4.90625H20.0958C20.2444 4.90646 20.3868 4.96557 20.4919 5.07063C20.5969 5.17569 20.656 5.31811 20.6562 5.46669V5.5625C20.6562 5.73655 20.7254 5.90347 20.8485 6.02654C20.9715 6.14961 21.1385 6.21875 21.3125 6.21875Z" fill="#4294FF"/>
<path d="M8.18749 7.1311C7.70533 8.54182 7.35385 9.99386 7.13748 11.4689C7.07186 11.902 7.01936 12.3417 6.97999 12.7814H0.968735C0.825457 12.7804 0.686434 12.7326 0.572817 12.6453C0.459201 12.558 0.377211 12.436 0.339322 12.2978C0.301434 12.1596 0.309721 12.0128 0.362922 11.8798C0.416124 11.7468 0.511327 11.6347 0.634048 11.5608L8.18749 7.1311Z" fill="#E6ECFF"/>
</svg>
