<svg width="38" height="36" viewBox="0 0 38 36" fill="none" xmlns="http://www.w3.org/2000/svg">
<path d="M36.0627 0.9375H1.93774C1.21287 0.9375 0.625244 1.52513 0.625244 2.25V25.875C0.625244 26.5999 1.21287 27.1875 1.93774 27.1875H36.0627C36.7876 27.1875 37.3752 26.5999 37.3752 25.875V2.25C37.3752 1.52513 36.7876 0.9375 36.0627 0.9375Z" fill="#E6ECFF"/>
<path d="M28.1875 32.4375C27.1436 32.4364 26.1427 32.0211 25.4045 31.283C24.6664 30.5448 24.2511 29.5439 24.25 28.5V25.875C24.25 25.5269 24.1117 25.1931 23.8656 24.9469C23.6194 24.7008 23.2856 24.5625 22.9375 24.5625H15.0625C14.7144 24.5625 14.3806 24.7008 14.1344 24.9469C13.8883 25.1931 13.75 25.5269 13.75 25.875V28.5C13.7489 29.5439 13.3336 30.5448 12.5955 31.283C11.8573 32.0211 10.8564 32.4364 9.8125 32.4375C9.4644 32.4375 9.13056 32.5758 8.88442 32.8219C8.63828 33.0681 8.5 33.4019 8.5 33.75C8.5 34.0981 8.63828 34.4319 8.88442 34.6781C9.13056 34.9242 9.4644 35.0625 9.8125 35.0625H28.1875C28.5356 35.0625 28.8694 34.9242 29.1156 34.6781C29.3617 34.4319 29.5 34.0981 29.5 33.75C29.5 33.4019 29.3617 33.0681 29.1156 32.8219C28.8694 32.5758 28.5356 32.4375 28.1875 32.4375Z" fill="#578BFF"/>
<path d="M37.375 24.7595V25.8751C37.374 26.2229 37.2354 26.5562 36.9895 26.8021C36.7436 27.048 36.4103 27.1866 36.0625 27.1876H1.93751C1.58973 27.1866 1.25647 27.048 1.01055 26.8021C0.764622 26.5562 0.626019 26.2229 0.625015 25.8751V2.25012C0.623556 1.94313 0.730836 1.64555 0.927837 1.41011C1.12484 1.17467 1.39884 1.01658 1.70126 0.963867C6.34751 10.2957 16.4013 22.7382 37.375 24.7595Z" fill="#C8D5F8"/>
<path d="M13.75 18C13.4019 18 13.0681 17.8617 12.8219 17.6156C12.5758 17.3694 12.4375 17.0356 12.4375 16.6875V11.4375C12.4375 11.0894 12.5758 10.7556 12.8219 10.5094C13.0681 10.2633 13.4019 10.125 13.75 10.125C14.0981 10.125 14.4319 10.2633 14.6781 10.5094C14.9242 10.7556 15.0625 11.0894 15.0625 11.4375V16.6875C15.0625 17.0356 14.9242 17.3694 14.6781 17.6156C14.4319 17.8617 14.0981 18 13.75 18Z" fill="#4294FF"/>
<path d="M29.5 18C29.1519 18 28.8181 17.8617 28.5719 17.6156C28.3258 17.3694 28.1875 17.0356 28.1875 16.6875V11.4375C28.1875 11.0894 28.3258 10.7556 28.5719 10.5094C28.8181 10.2633 29.1519 10.125 29.5 10.125C29.8481 10.125 30.1819 10.2633 30.4281 10.5094C30.6742 10.7556 30.8125 11.0894 30.8125 11.4375V16.6875C30.8125 17.0356 30.6742 17.3694 30.4281 17.6156C30.1819 17.8617 29.8481 18 29.5 18Z" fill="#4294FF"/>
<path d="M8.5 18C8.1519 18 7.81806 17.8617 7.57192 17.6156C7.32578 17.3694 7.1875 17.0356 7.1875 16.6875V14.0625C7.1875 13.7144 7.32578 13.3806 7.57192 13.1344C7.81806 12.8883 8.1519 12.75 8.5 12.75C8.8481 12.75 9.18194 12.8883 9.42808 13.1344C9.67422 13.3806 9.8125 13.7144 9.8125 14.0625V16.6875C9.8125 17.0356 9.67422 17.3694 9.42808 17.6156C9.18194 17.8617 8.8481 18 8.5 18V18Z" fill="#578BFF"/>
<path d="M24.25 18C23.9019 18 23.5681 17.8617 23.3219 17.6156C23.0758 17.3694 22.9375 17.0356 22.9375 16.6875V8.8125C22.9375 8.4644 23.0758 8.13056 23.3219 7.88442C23.5681 7.63828 23.9019 7.5 24.25 7.5C24.5981 7.5 24.9319 7.63828 25.1781 7.88442C25.4242 8.13056 25.5625 8.4644 25.5625 8.8125V16.6875C25.5625 17.0356 25.4242 17.3694 25.1781 17.6156C24.9319 17.8617 24.5981 18 24.25 18Z" fill="#4294FF"/>
<path d="M19 18C18.6519 18 18.3181 17.8617 18.0719 17.6156C17.8258 17.3694 17.6875 17.0356 17.6875 16.6875V6.1875C17.6875 5.8394 17.8258 5.50556 18.0719 5.25942C18.3181 5.01328 18.6519 4.875 19 4.875C19.3481 4.875 19.6819 5.01328 19.9281 5.25942C20.1742 5.50556 20.3125 5.8394 20.3125 6.1875V16.6875C20.3125 17.0356 20.1742 17.3694 19.9281 17.6156C19.6819 17.8617 19.3481 18 19 18Z" fill="#4294FF"/>
<path d="M15.0494 16.8318C15.0133 17.1653 14.8506 17.4722 14.5949 17.6893C14.3392 17.9064 14.0099 18.0171 13.675 17.9986C13.34 17.9801 13.025 17.8338 12.7947 17.5898C12.5645 17.3459 12.4366 17.0229 12.4375 16.6874V14.8105C13.2644 15.5062 14.1306 16.1755 15.0494 16.8318Z" fill="#4294FF"/>
<path d="M37.375 21.9375V25.875C37.374 26.2228 37.2354 26.556 36.9895 26.802C36.7435 27.0479 36.4103 27.1865 36.0625 27.1875H1.9375C1.58971 27.1865 1.25646 27.0479 1.01053 26.802C0.764607 26.556 0.626004 26.2228 0.625 25.875V21.9375H37.375Z" fill="#4294FF"/>
<path d="M37.375 24.7594V25.875C37.374 26.2228 37.2354 26.556 36.9895 26.802C36.7435 27.0479 36.4103 27.1865 36.0625 27.1875H1.9375C1.58971 27.1865 1.25646 27.0479 1.01053 26.802C0.764607 26.556 0.626004 26.2228 0.625 25.875V21.9375H24.7225C28.8007 23.4198 33.0535 24.3683 37.375 24.7594V24.7594Z" fill="#578BFF"/>
</svg>
