<svg width="42" height="42" viewBox="0 0 42 42" fill="none" xmlns="http://www.w3.org/2000/svg">
<path d="M28.6827 25.1299L25.4015 21.8486C25.3353 21.7816 25.2553 21.7299 25.1671 21.697C25.0789 21.664 24.9846 21.6507 24.8907 21.6579C24.7969 21.6646 24.7057 21.6913 24.6232 21.7363C24.5407 21.7813 24.4688 21.8436 24.4125 21.9188C23.7036 22.8642 22.8637 23.7039 21.9182 24.4126C21.8431 24.4691 21.7811 24.541 21.7362 24.6236C21.6913 24.7061 21.6646 24.7974 21.658 24.8911C21.6514 24.9848 21.665 25.0789 21.6978 25.1669C21.7306 25.255 21.782 25.3349 21.8484 25.4014L25.1296 28.6827C25.1906 28.7436 25.2629 28.792 25.3425 28.825C25.4221 28.858 25.5074 28.875 25.5936 28.875C25.6798 28.875 25.7651 28.858 25.8447 28.825C25.9243 28.792 25.9967 28.7436 26.0576 28.6827L28.6826 26.0577C28.7435 25.9968 28.7919 25.9245 28.8249 25.8449C28.8579 25.7653 28.8749 25.68 28.8749 25.5938C28.8749 25.5076 28.8579 25.4223 28.825 25.3427C28.792 25.2631 28.7436 25.1908 28.6827 25.1299V25.1299Z" fill="#4294FF"/>
<path d="M40.0641 33.8864L29.9952 23.8174C29.8698 23.6989 29.7038 23.6328 29.5313 23.6328C29.3587 23.6328 29.1927 23.6989 29.0673 23.8174L23.8173 29.0674C23.7563 29.1283 23.708 29.2006 23.675 29.2802C23.642 29.3599 23.625 29.4452 23.625 29.5314C23.625 29.6175 23.642 29.7029 23.675 29.7825C23.708 29.8621 23.7563 29.9344 23.8173 29.9953L33.886 40.0642C34.7064 40.8776 35.8157 41.333 36.971 41.3305C38.1264 41.3281 39.2337 40.868 40.0507 40.0511C40.8677 39.2342 41.3278 38.1269 41.3303 36.9715C41.3328 35.8161 40.8775 34.7069 40.0641 33.8864V33.8864Z" fill="#4294FF"/>
<path d="M14.4375 28.2188C22.0487 28.2188 28.2188 22.0487 28.2188 14.4375C28.2188 6.82633 22.0487 0.65625 14.4375 0.65625C6.82633 0.65625 0.65625 6.82633 0.65625 14.4375C0.65625 22.0487 6.82633 28.2188 14.4375 28.2188Z" fill="#E6ECFF"/>
<path d="M28.2188 14.4374C28.2196 17.5436 27.1707 20.5589 25.2425 22.9941C23.3142 25.4292 20.6196 27.1414 17.5959 27.8526C14.5723 28.5639 11.397 28.2326 8.58532 26.9124C5.77365 25.5922 3.49058 23.3607 2.10657 20.5799C8.41969 23.4739 17.6466 23.8414 27.9628 11.7861C28.1347 12.6594 28.2204 13.5474 28.2188 14.4374V14.4374Z" fill="#C8D5F8"/>
<path d="M14.4375 25.5938C20.5989 25.5938 25.5938 20.5989 25.5938 14.4375C25.5938 8.27607 20.5989 3.28125 14.4375 3.28125C8.27607 3.28125 3.28125 8.27607 3.28125 14.4375C3.28125 20.5989 8.27607 25.5938 14.4375 25.5938Z" fill="#E6ECFF"/>
<path d="M25.5937 14.3586V14.4374C25.5957 16.691 24.9144 18.8923 23.6399 20.751C22.3653 22.6096 20.5573 24.0382 18.4544 24.8484C16.3514 25.6586 14.0522 25.8123 11.8601 25.2893C9.66801 24.7663 7.68593 23.591 6.17529 21.9186C11.5434 23.0211 18.2437 21.7546 25.5937 14.3586Z" fill="#C8D5F8"/>
<path d="M11.1562 18.375V25.095C9.70877 24.6516 8.36833 23.9144 7.21875 22.9294V18.375C7.21925 18.2011 7.28855 18.0345 7.41152 17.9115C7.53448 17.7886 7.70111 17.7193 7.875 17.7188H10.5C10.6739 17.7193 10.8405 17.7886 10.9635 17.9115C11.0864 18.0345 11.1557 18.2011 11.1562 18.375V18.375Z" fill="#4294FF"/>
<path d="M16.4062 15.0937V25.4166C15.1044 25.6528 13.7706 25.6528 12.4688 25.4166V15.0937C12.4693 14.9199 12.5386 14.7532 12.6615 14.6303C12.7845 14.5073 12.9511 14.438 13.125 14.4375H15.75C15.9239 14.438 16.0905 14.5073 16.2135 14.6303C16.3364 14.7532 16.4057 14.9199 16.4062 15.0937V15.0937Z" fill="#4294FF"/>
<path d="M21.6562 11.8125V22.9294C20.5067 23.9144 19.1662 24.6516 17.7188 25.095V11.8125C17.7193 11.6386 17.7886 11.472 17.9115 11.349C18.0345 11.2261 18.2011 11.1568 18.375 11.1562H21C21.1739 11.1568 21.3405 11.2261 21.4635 11.349C21.5864 11.472 21.6557 11.6386 21.6562 11.8125V11.8125Z" fill="#4294FF"/>
<path d="M18.375 5.90625H16.4062C16.2322 5.90625 16.0653 5.97539 15.9422 6.09846C15.8191 6.22153 15.75 6.38845 15.75 6.5625C15.75 6.73655 15.8191 6.90347 15.9422 7.02654C16.0653 7.14961 16.2322 7.21875 16.4062 7.21875H16.773C15.2356 8.85006 11.8943 11.8125 7.875 11.8125C7.70095 11.8125 7.53403 11.8816 7.41096 12.0047C7.28789 12.1278 7.21875 12.2947 7.21875 12.4688C7.21875 12.6428 7.28789 12.8097 7.41096 12.9328C7.53403 13.0559 7.70095 13.125 7.875 13.125C12.4061 13.125 16.0353 9.93228 17.7188 8.13842V8.53125C17.7188 8.7053 17.7879 8.87222 17.911 8.99529C18.034 9.11836 18.201 9.1875 18.375 9.1875C18.549 9.1875 18.716 9.11836 18.839 8.99529C18.9621 8.87222 19.0312 8.7053 19.0312 8.53125V6.5625C19.0312 6.38845 18.9621 6.22153 18.839 6.09846C18.716 5.97539 18.549 5.90625 18.375 5.90625V5.90625Z" fill="#4294FF"/>
<path d="M11.1562 22.1878V25.095C9.70877 24.6516 8.36833 23.9144 7.21875 22.9294V22.0959C8.52245 22.2887 9.84498 22.3195 11.1562 22.1878Z" fill="#578BFF"/>
<path d="M16.4062 20.8491V25.4166C15.1044 25.6529 13.7706 25.6529 12.4688 25.4166V22.0107C13.8196 21.7681 15.14 21.3786 16.4062 20.8491V20.8491Z" fill="#578BFF"/>
<path d="M21.6562 17.804V22.9293C20.5067 23.9143 19.1662 24.6515 17.7188 25.0949V20.2452C19.1014 19.5504 20.4191 18.7334 21.6562 17.804V17.804Z" fill="#578BFF"/>
</svg>
