<svg width="38" height="32" viewBox="0 0 38 32" fill="none" xmlns="http://www.w3.org/2000/svg">
<path d="M5.875 6.8125H4.5625C3.51821 6.8125 2.51669 7.22734 1.77827 7.96577C1.03984 8.70419 0.625 9.70571 0.625 10.75C0.625 11.7943 1.03984 12.7958 1.77827 13.5342C2.51669 14.2727 3.51821 14.6875 4.5625 14.6875H5.875C6.2231 14.6875 6.55694 14.5492 6.80308 14.3031C7.04922 14.0569 7.1875 13.7231 7.1875 13.375V8.125C7.1875 7.7769 7.04922 7.44306 6.80308 7.19692C6.55694 6.95078 6.2231 6.8125 5.875 6.8125Z" fill="#4294FF"/>
<path d="M19.5119 29.8731C19.0511 30.5329 18.4178 31.0534 17.6812 31.3777C16.9447 31.702 16.1331 31.8177 15.3353 31.712C14.5375 31.6063 13.784 31.2835 13.1572 30.7786C12.5305 30.2738 12.0545 29.6064 11.7813 28.8494L7.5813 17.3125H16.9394L20.0369 25.8569C20.2824 26.5186 20.3629 27.2301 20.2714 27.93C20.1799 28.6298 19.9192 29.2968 19.5119 29.8731Z" fill="#578BFF"/>
<path d="M19 4.1875H5.875C5.15013 4.1875 4.5625 4.77513 4.5625 5.5V16C4.5625 16.7249 5.15013 17.3125 5.875 17.3125H19C19.7249 17.3125 20.3125 16.7249 20.3125 16V5.5C20.3125 4.77513 19.7249 4.1875 19 4.1875Z" fill="#E6ECFF"/>
<path d="M33.4375 6.8125H30.8125C30.4644 6.8125 30.1306 6.95078 29.8844 7.19692C29.6383 7.44306 29.5 7.7769 29.5 8.125V13.375C29.5 13.7231 29.6383 14.0569 29.8844 14.3031C30.1306 14.5492 30.4644 14.6875 30.8125 14.6875H33.4375C34.4818 14.6875 35.4833 14.2727 36.2217 13.5342C36.9602 12.7958 37.375 11.7943 37.375 10.75C37.375 9.70571 36.9602 8.70419 36.2217 7.96577C35.4833 7.22734 34.4818 6.8125 33.4375 6.8125Z" fill="#578BFF"/>
<path d="M20.3125 13.585V16C20.3115 16.3477 20.1729 16.681 19.927 16.9269C19.681 17.1729 19.3478 17.3115 19 17.3125H5.875C5.52721 17.3115 5.19396 17.1729 4.94803 16.9269C4.70211 16.681 4.5635 16.3477 4.5625 16V15.1862C9.86546 15.5587 15.193 15.017 20.3125 13.585Z" fill="#C8D5F8"/>
<path d="M31.62 0.528164C31.4632 0.404559 31.2801 0.318753 31.0848 0.277416C30.8895 0.236078 30.6873 0.240321 30.494 0.289814L19.994 2.91481C19.7101 2.98582 19.4582 3.14963 19.2781 3.38022C19.098 3.61082 19.0001 3.89497 19 4.18755V17.3125C19 17.6052 19.0979 17.8894 19.278 18.1201C19.458 18.3508 19.7101 18.5146 19.994 18.5857L30.494 21.2107C30.5981 21.2371 30.7051 21.2503 30.8125 21.25C31.1605 21.2499 31.4943 21.1115 31.7404 20.8654C31.9865 20.6193 32.1248 20.2856 32.125 19.9375V1.56255C32.1249 1.3631 32.0794 1.16629 31.9919 0.987066C31.9043 0.80784 31.7772 0.650904 31.62 0.528164Z" fill="#E6ECFF"/>
<path d="M32.125 5.67065V19.9375C32.1268 20.1104 32.094 20.2818 32.0287 20.4419C31.9633 20.6019 31.8667 20.7473 31.7445 20.8695C31.6223 20.9917 31.4769 21.0884 31.3168 21.1537C31.1568 21.219 30.9854 21.2518 30.8125 21.25C30.7063 21.2499 30.6005 21.2367 30.4975 21.2107L19.9975 18.5857C19.7124 18.5164 19.4589 18.3531 19.2779 18.1221C19.0969 17.8912 18.999 17.606 19 17.3125V13.9525C25.5494 12.2594 29.605 9.1094 32.125 5.67065Z" fill="#C8D5F8"/>
</svg>
